<svg width="52.611mm" height="21.841mm" version="1.1" viewBox="0 0 52.611 21.841" xmlns="http://www.w3.org/2000/svg">
 <g transform="translate(-49.889 -84.334)">
  <text x="48.905048" y="103.52164" font-family="'Microsoft Sans Serif'" font-size="16.933px" stroke-width=".26458" style="line-height:1.25" xml:space="preserve"><tspan x="48.905048" y="103.52164" fill="#009b3e" font-family="'Franklin Gothic Heavy'" font-size="16.933px" stroke-width=".26458">HireUp</tspan></text>
  <g fill="none">
   <path d="m82.745 92.235 9.2193 0.04239-4.3506-6.0685z"/>
   <path d="m87.703 84.334 6.1578 7.9203-13.029-0.02231z"/>
   <path d="m84.496 92.243 6.2631-0.0079-3.0339-4.3368z"/>
   <path d="m81.256 92.232h12.327l-5.8566-7.3139z" style="mix-blend-mode:screen"/>
   <path transform="scale(.26458)" d="m307.76 348.14c0.96097-1.1516 23.771-26.864 23.817-26.847 0.0423 0.0161 19.5 24.273 21.479 26.776l0.28114 0.35569h-10.209l-5.7551-8.2216c-3.1653-4.5219-5.7775-8.2216-5.8049-8.2216-0.0274 0-2.799 3.6997-6.1591 8.2216l-6.1093 8.2216h-11.777z"/>
   <path transform="scale(.26458)" d="m317.96 336.22c6.061-6.8524 11.603-13.114 12.315-13.915l1.2947-1.456 11.054 13.809c6.0796 7.5952 11.091 13.857 11.137 13.915 0.0662 0.0843-4.6196 0.1054-23.369 0.1054h-23.451zm7.4862 4.1081c3.3388-4.4972 6.0904-8.1768 6.1147-8.1768s2.6193 3.6807 5.7666 8.1794l5.7224 8.1794h5.2174c2.8696 0 5.2174-0.0158 5.2174-0.0351 0-0.0544-21.849-27.325-21.911-27.349-0.0544-0.0207-24.145 27.166-24.2 27.311-0.0159 0.0416 2.5892 0.0725 5.987 0.071l6.0151-3e-3zm16.882 7.4021c-6.0841-8.7176-10.7-15.289-10.753-15.307-0.0531-0.0181-11.705 15.581-11.937 15.981-0.0488 0.0841 2.292 0.10541 11.587 0.10541h11.648z"/>
   <path transform="scale(.26458)" d="m307.76 348.14c0.96097-1.1516 23.771-26.864 23.817-26.847 0.0423 0.0161 19.5 24.273 21.479 26.776l0.28114 0.35569h-10.209l-5.7551-8.2216c-3.1653-4.5219-5.7775-8.2216-5.8049-8.2216-0.0274 0-2.799 3.6997-6.1591 8.2216l-6.1093 8.2216h-11.777z"/>
  </g>
  <path d="m81.422 92.472c0.25426-0.30468 6.2895-7.1078 6.3015-7.1032 0.01119 0.0043 5.1593 6.4221 5.6829 7.0846l0.07438 0.09411h-2.7011l-1.5227-2.1753c-0.83748-1.1964-1.5286-2.1753-1.5359-2.1753-0.0072 0-0.74057 0.97888-1.6296 2.1753l-1.6164 2.1753h-3.116z" fill="#009b3e"/>
 </g>
</svg>
